<svg width="127" height="34" viewBox="0 0 127 34" fill="none" xmlns="http://www.w3.org/2000/svg">
<path fill-rule="evenodd" clip-rule="evenodd" d="M20.0351 15.4645C20.0016 11.7912 23.0849 10.0038 23.2267 9.92043C21.4799 7.40915 18.7734 7.06648 17.8223 7.0387C15.549 6.80288 13.344 8.38018 12.1856 8.38018C11.0045 8.38018 9.22198 7.0622 7.29917 7.10068C4.82636 7.13772 2.51242 8.55045 1.24361 10.7433C-1.37524 15.2151 0.578208 21.7865 3.08663 25.4013C4.34192 27.1709 5.80807 29.1479 7.72804 29.0781C9.60598 29.0019 10.3077 27.8976 12.5739 27.8976C14.8195 27.8976 15.4784 29.0781 17.4362 29.0339C19.4523 29.0019 20.7204 27.2557 21.9315 25.4697C23.382 23.4407 23.9648 21.4424 23.9876 21.3398C23.9406 21.3234 20.0735 19.8679 20.0351 15.4645ZM16.3369 4.66136C17.3471 3.41462 18.0382 1.72049 17.8465 0C16.3846 0.0641177 14.5559 0.997386 13.5036 2.21562C12.5718 3.28995 11.7397 5.04962 11.9548 6.70457C13.5969 6.82568 15.2832 5.88743 16.3369 4.66136ZM42.7185 22.4989L41.4183 18.5378C41.2808 18.1332 41.0229 17.18 40.6425 15.6803H40.5962C40.3657 16.6361 40.1222 17.5887 39.866 18.5378L38.5886 22.4989H42.7185ZM47.2138 28.8237H44.5893L43.1516 24.3683H38.1547L36.7847 28.8237H34.2293L39.1806 13.6549H42.2383L47.2138 28.8237ZM57.4363 23.3096C57.4363 22.2446 57.1934 21.3669 56.7054 20.6765C56.1732 19.9556 55.4572 19.5958 54.561 19.5958C53.9526 19.5958 53.3998 19.796 52.9068 20.1921C52.4124 20.591 52.0889 21.1111 51.9379 21.7566C51.8609 22.0579 51.8232 22.3037 51.8232 22.4975V24.3213C51.8232 25.117 52.0704 25.7888 52.5648 26.3374C53.0592 26.8853 53.7018 27.1588 54.4926 27.1588C55.4209 27.1588 56.1426 26.8055 56.6598 26.1009C57.177 25.3956 57.4363 24.4652 57.4363 23.3096ZM59.9462 23.2206C59.9462 25.0807 59.4368 26.5511 58.4173 27.6304C57.504 28.5915 56.3706 29.0717 55.017 29.0717C53.5565 29.0717 52.5071 28.5537 51.8681 27.5186H51.8218V33.2806H49.3575V21.4865C49.3575 20.3175 49.3269 19.117 49.2663 17.886H51.4335L51.571 19.6193H51.6173C52.4387 18.3134 53.6862 17.6616 55.3596 17.6616C56.6676 17.6616 57.7598 18.1709 58.6332 19.1911C59.5095 20.212 59.9462 21.5549 59.9462 23.2206ZM70.1915 23.3096C70.1915 22.2446 69.9478 21.3669 69.4598 20.6765C68.9269 19.9556 68.2145 19.5958 67.3162 19.5958C66.707 19.5958 66.1556 19.796 65.6612 20.1921C65.1668 20.591 64.8441 21.1111 64.6923 21.7566C64.6175 22.0579 64.5783 22.3037 64.5783 22.4975V24.3213C64.5783 25.117 64.8255 25.7888 65.3178 26.3374C65.813 26.8838 66.4548 27.1588 67.2485 27.1588C68.176 27.1588 68.8984 26.8055 69.4149 26.1009C69.9329 25.3956 70.1915 24.4652 70.1915 23.3096ZM72.702 23.2206C72.702 25.0807 72.1919 26.5511 71.1718 27.6304C70.2599 28.5915 69.1257 29.0717 67.7728 29.0717C66.3124 29.0717 65.2623 28.5537 64.6239 27.5186H64.5783V33.2806H62.1141V21.4865C62.1141 20.3175 62.0834 19.117 62.0229 17.886H64.1901L64.3276 19.6193H64.3739C65.1946 18.3134 66.4413 17.6616 68.1162 17.6616C69.4228 17.6616 70.5149 18.1709 71.3912 19.1911C72.2639 20.212 72.702 21.5549 72.702 23.2206ZM86.9632 24.5699C86.9632 25.8601 86.5087 26.9102 85.5968 27.7209C84.5952 28.6065 83.2002 29.0489 81.4078 29.0489C79.7529 29.0489 78.4256 28.734 77.4218 28.1035L77.9925 26.0781C79.0746 26.7235 80.2615 27.047 81.5546 27.047C82.4821 27.047 83.2045 26.8397 83.7239 26.4272C84.2404 26.014 84.4983 25.4604 84.4983 24.7694C84.4983 24.1538 84.2853 23.6352 83.8592 23.2149C83.4346 22.7945 82.7265 22.4027 81.7369 22.0415C79.044 21.0513 77.699 19.6001 77.699 17.6922C77.699 16.4455 78.1706 15.4224 79.1145 14.6267C80.0549 13.8302 81.3109 13.4327 82.8804 13.4327C84.2796 13.4327 85.4422 13.6727 86.3705 14.1522L85.7543 16.1341C84.8873 15.6689 83.9077 15.436 82.8105 15.436C81.9442 15.436 81.2667 15.6469 80.7816 16.0665C80.3712 16.4419 80.1653 16.8986 80.1653 17.44C80.1653 18.0399 80.4004 18.5357 80.8713 18.9254C81.2817 19.2859 82.0269 19.6756 83.1083 20.0959C84.432 20.6217 85.4038 21.2358 86.0293 21.9404C86.6519 22.6428 86.9632 23.5219 86.9632 24.5699ZM95.1097 19.7098H92.394V25.0201C92.394 26.3709 92.872 27.0455 93.8317 27.0455C94.2719 27.0455 94.6367 27.0085 94.9259 26.933L94.9943 28.7782C94.5085 28.9577 93.8694 29.0474 93.0779 29.0474C92.1048 29.0474 91.3446 28.7546 90.7953 28.1697C90.2489 27.5841 89.9739 26.601 89.9739 25.2203V19.7076H88.356V17.8838H89.9732V15.8805L92.394 15.161V17.8838H95.1097V19.7098ZM104.807 23.3438C104.807 22.335 104.588 21.4702 104.146 20.7478C103.63 19.8751 102.891 19.4398 101.934 19.4398C100.944 19.4398 100.191 19.8758 99.6749 20.7478C99.2318 21.4709 99.0138 22.3493 99.0138 23.3894C99.0138 24.3982 99.2318 25.2631 99.6749 25.9833C100.207 26.8568 100.952 27.292 101.912 27.292C102.852 27.292 103.591 26.8475 104.124 25.9605C104.578 25.2253 104.807 24.3512 104.807 23.3438ZM107.363 23.2655C107.363 24.9468 106.876 26.3267 105.903 27.406C104.882 28.5174 103.528 29.0717 101.839 29.0717C100.212 29.0717 98.9162 28.5388 97.9502 27.4744C96.9841 26.4101 96.5011 25.0665 96.5011 23.4464C96.5011 21.7509 96.9984 20.3631 97.9958 19.283C98.9903 18.203 100.333 17.6623 102.022 17.6623C103.649 17.6623 104.958 18.1945 105.947 19.2602C106.892 20.2947 107.363 21.6297 107.363 23.2655ZM115.372 20.0232C115.116 19.9774 114.856 19.9548 114.596 19.9556C113.729 19.9556 113.059 20.2783 112.587 20.9244C112.177 21.4944 111.971 22.2154 111.971 23.0845V28.8237H109.508L109.532 21.3305C109.532 20.0695 109.501 18.9226 109.439 17.8867H111.585L111.676 19.9798H111.744C112.004 19.2602 112.414 18.6818 112.976 18.2472C113.524 17.8561 114.118 17.6616 114.757 17.6616C114.985 17.6616 115.19 17.6772 115.372 17.7057V20.0232ZM124.042 22.2068C124.059 21.4873 123.898 20.8646 123.564 20.3388C123.138 19.6628 122.482 19.3258 121.6 19.3258C120.795 19.3258 120.14 19.6549 119.64 20.316C119.229 20.8418 118.985 21.4716 118.91 22.2061L124.042 22.2068ZM126.392 22.8373C126.392 23.2726 126.364 23.6402 126.302 23.9394H118.91C118.939 25.0201 119.296 25.8465 119.982 26.4165C120.606 26.9259 121.411 27.1816 122.4 27.1816C123.495 27.1816 124.493 27.0092 125.391 26.6637L125.777 28.3507C124.728 28.8024 123.489 29.0275 122.059 29.0275C120.34 29.0275 118.99 28.5274 118.008 27.53C117.027 26.5326 116.536 25.1933 116.536 23.5134C116.536 21.8641 116.992 20.4906 117.907 19.3956C118.864 18.2258 120.157 17.6409 121.784 17.6409C123.383 17.6409 124.592 18.2251 125.415 19.3949C126.065 20.3239 126.392 21.473 126.392 22.8373ZM40.6261 4.35501C40.6261 3.48586 40.3931 2.81904 39.9258 2.35383C39.4592 1.89005 38.7774 1.6578 37.879 1.6578C37.4979 1.6578 37.1737 1.68273 36.9037 1.73474V7.30799C37.0533 7.33079 37.3255 7.34076 37.7223 7.34076C38.6484 7.34076 39.3644 7.08643 39.8681 6.57847C40.3725 6.06981 40.6261 5.32818 40.6261 4.35501ZM41.9035 4.32224C41.9035 5.66444 41.4953 6.67394 40.681 7.35216C39.9258 7.97838 38.8536 8.29184 37.4644 8.29184C36.8726 8.29686 36.281 8.26713 35.6926 8.20279V0.871288C36.3828 0.764876 37.0803 0.713183 37.7786 0.716693C39.1022 0.716693 40.0996 1.00024 40.7722 1.56803C41.5259 2.20921 41.9035 3.12823 41.9035 4.32224ZM47.4183 5.53336C47.4183 5.03751 47.31 4.6122 47.0934 4.25813C46.8398 3.82925 46.4779 3.61481 46.0077 3.61481C45.5211 3.61481 45.1507 3.82854 44.8963 4.25741C44.6798 4.6122 44.5722 5.04392 44.5722 5.55473C44.5722 6.05057 44.6805 6.47588 44.8971 6.82996C45.1592 7.25883 45.524 7.47327 45.9956 7.47327C46.4587 7.47327 46.8213 7.25527 47.082 6.81856C47.3065 6.45736 47.4183 6.0292 47.4183 5.53336ZM48.675 5.49417C48.675 6.32058 48.4356 6.99738 47.9569 7.52884C47.4554 8.07527 46.7907 8.34741 45.9614 8.34741C45.1614 8.34741 44.5245 8.08666 44.0493 7.56232C43.5755 7.0387 43.339 6.379 43.339 5.58322C43.339 4.75112 43.5826 4.06862 44.0728 3.53858C44.5629 3.00854 45.2212 2.74281 46.0512 2.74281C46.8512 2.74281 47.4938 3.00356 47.9804 3.52647C48.4428 4.03514 48.675 4.69199 48.675 5.49417ZM57.7541 2.85181L56.0493 8.22558H54.94L54.2333 5.89241C54.0576 5.32165 53.9116 4.74215 53.7959 4.15625H53.7738C53.6692 4.74465 53.5228 5.32485 53.3357 5.89241L52.5855 8.22558H51.4641L49.8612 2.85181H51.1058L51.722 5.40655C51.8709 6.01068 51.9935 6.58631 52.0918 7.1306H52.1131C52.2036 6.68177 52.3532 6.1097 52.5634 5.41794L53.3364 2.85324H54.3231L55.064 5.36309C55.2435 5.97577 55.3888 6.56494 55.5007 7.13202H55.5342C55.6256 6.53612 55.7493 5.94561 55.9046 5.36309L56.5658 2.85324H57.7548L57.7541 2.85181ZM64.0326 8.22558H62.8215V5.14794C62.8215 4.19971 62.4567 3.72524 61.7244 3.72524C61.3646 3.72524 61.0739 3.8549 60.8488 4.11635C60.6274 4.37168 60.5077 4.69958 60.5126 5.03751V8.22416H59.3014V4.38779C59.3014 3.91545 59.2865 3.40394 59.2573 2.84967H60.3216L60.3786 3.69033H60.4121C60.5532 3.42887 60.7633 3.21301 61.039 3.04132C61.3697 2.83972 61.7503 2.73506 62.1376 2.73925C62.6463 2.73925 63.0687 2.90097 63.4057 3.22583C63.8239 3.62407 64.0326 4.21752 64.0326 5.00688V8.22558ZM66.1628 8.22558H67.3732V0.386843H66.1628V8.22558ZM73.2463 5.53336C73.2463 5.03751 73.1373 4.6122 72.9215 4.25813C72.6686 3.82925 72.3052 3.61481 71.8365 3.61481C71.3484 3.61481 70.9787 3.82854 70.7251 4.25741C70.5085 4.6122 70.4009 5.04392 70.4009 5.55473C70.4009 6.05057 70.5092 6.47588 70.7258 6.82996C70.988 7.25883 71.3527 7.47327 71.8243 7.47327C72.2874 7.47327 72.6486 7.25527 72.9101 6.81856C73.1352 6.45736 73.2463 6.0292 73.2463 5.53336ZM74.5038 5.49417C74.5038 6.32058 74.2644 6.99738 73.7856 7.52884C73.2841 8.07527 72.6187 8.34741 71.7902 8.34741C70.9887 8.34741 70.3525 8.08666 69.8787 7.56232C69.4043 7.0387 69.1677 6.379 69.1677 5.58322C69.1677 4.75112 69.4114 4.06862 69.9015 3.53858C70.3917 3.00854 71.0499 2.74281 71.8792 2.74281C72.68 2.74281 73.3211 3.00356 73.8091 3.52647C74.2715 4.03514 74.5038 4.69199 74.5038 5.49417ZM79.1081 6.37828V5.55117C77.7716 5.52837 77.1041 5.88956 77.1041 6.63404C77.1041 6.91402 77.1803 7.12419 77.3363 7.26382C77.4923 7.40417 77.6911 7.47398 77.9276 7.47398C78.1934 7.47398 78.442 7.39063 78.6685 7.22535C78.8053 7.13105 78.9169 7.00465 78.9936 6.85723C79.0702 6.70981 79.1095 6.54585 79.1081 6.37971V6.37828ZM80.3655 8.2263H79.2777L79.1879 7.60721H79.1537C78.7818 8.10091 78.2518 8.34812 77.5629 8.34812C77.0485 8.34812 76.6325 8.18498 76.319 7.86154C76.0347 7.56731 75.893 7.20113 75.893 6.76726C75.893 6.11041 76.1701 5.6103 76.7279 5.26406C77.285 4.91711 78.0687 4.74756 79.0775 4.75539V4.65423C79.0775 3.94609 78.7013 3.59273 77.9462 3.59273C77.409 3.59273 76.9345 3.72666 76.5263 3.99097L76.2798 3.2066C76.7856 2.89741 77.4111 2.74281 78.1485 2.74281C79.5726 2.74281 80.2865 3.48373 80.2865 4.96556V6.94394C80.2865 7.48111 80.3135 7.90856 80.3648 8.22558L80.3655 8.2263ZM85.9922 5.95938V5.06316C85.9922 4.90856 85.9808 4.78318 85.9587 4.687C85.8935 4.40521 85.74 4.15161 85.5206 3.96318C85.296 3.769 85.0074 3.66494 84.7106 3.67109C84.2589 3.67109 83.9055 3.84706 83.6448 4.20184C83.3876 4.55592 83.2565 5.00902 83.2565 5.56185C83.2565 6.0926 83.3805 6.52362 83.6291 6.8556C83.8913 7.20896 84.2447 7.38564 84.6878 7.38564C85.0853 7.38564 85.403 7.23817 85.6446 6.94323C85.8782 6.67038 85.9922 6.34266 85.9922 5.95938ZM87.2475 8.22487H86.1725L86.1155 7.36285H86.0827C85.7393 8.01898 85.1544 8.34741 84.333 8.34741C83.6761 8.34741 83.129 8.09307 82.6966 7.58512C82.2627 7.07645 82.0468 6.41675 82.0468 5.60602C82.0468 4.73687 82.2819 4.03158 82.7528 3.4937C83.2088 2.99216 83.7688 2.74139 84.4342 2.74139C85.1658 2.74139 85.678 2.98432 85.9694 3.4709H85.9922V0.386843H87.2048V6.77866C87.2048 7.30158 87.219 7.78389 87.2475 8.2263V8.22487ZM96.3508 5.53336C96.3508 5.03751 96.2425 4.6122 96.0259 4.25813C95.7709 3.82925 95.4104 3.61481 94.9388 3.61481C94.4529 3.61481 94.0839 3.82854 93.8274 4.25741C93.6108 4.6122 93.5032 5.04392 93.5032 5.55473C93.5032 6.05057 93.6115 6.47588 93.8281 6.82996C94.0903 7.25883 94.455 7.47327 94.9274 7.47327C95.389 7.47327 95.7538 7.25527 96.0145 6.81856C96.2375 6.45736 96.3508 6.0292 96.3508 5.53336ZM97.6061 5.49417C97.6061 6.32058 97.3667 6.99738 96.8879 7.52884C96.3864 8.07527 95.7231 8.34741 94.8925 8.34741C94.0938 8.34741 93.4569 8.08666 92.981 7.56232C92.5073 7.0387 92.2701 6.379 92.2701 5.58322C92.2701 4.75112 92.5137 4.06862 93.0038 3.53858C93.494 3.00854 94.153 2.74281 94.9836 2.74281C95.7823 2.74281 96.4263 3.00356 96.9115 3.52647C97.3738 4.03514 97.6061 4.69199 97.6061 5.49417ZM104.119 8.22558H102.908V5.14794C102.908 4.19971 102.543 3.72524 101.809 3.72524C101.45 3.72524 101.16 3.8549 100.935 4.11635C100.713 4.3714 100.594 4.69949 100.599 5.03751V8.22416H99.3871V4.38779C99.3871 3.91545 99.3729 3.40394 99.3444 2.84967H100.407L100.464 3.69033H100.498C100.64 3.42887 100.85 3.21301 101.125 3.04132C101.456 2.83984 101.837 2.7352 102.224 2.73925C102.731 2.73925 103.154 2.90097 103.491 3.22583C103.911 3.62407 104.118 4.21752 104.118 5.00688L104.119 8.22558ZM112.269 3.74661H110.936V6.35691C110.936 7.02089 111.173 7.35216 111.641 7.35216C111.859 7.35216 112.04 7.33435 112.181 7.29659L112.213 8.20279C111.973 8.29184 111.659 8.33601 111.272 8.33601C110.794 8.33601 110.422 8.1921 110.152 7.905C109.882 7.61789 109.748 7.13487 109.748 6.45665V3.74661H108.951V2.85181H109.748V1.86725L110.935 1.51389V2.8511H112.268L112.269 3.74661ZM118.681 8.22558H117.469V5.17073C117.469 4.20754 117.104 3.72524 116.372 3.72524C115.81 3.72524 115.427 4.00451 115.216 4.56304C115.176 4.70267 115.157 4.84741 115.159 4.99263V8.22416H113.95V0.386843H115.161V3.62479H115.184C115.565 3.03562 116.112 2.74139 116.82 2.74139C117.322 2.74139 117.737 2.90311 118.067 3.22797C118.476 3.63262 118.682 4.23462 118.682 5.03039V8.22558H118.681ZM124.139 4.97553C124.149 4.62146 124.07 4.31583 123.905 4.05794C123.695 3.72666 123.375 3.55996 122.941 3.55996C122.546 3.55996 122.224 3.72167 121.977 4.04654C121.772 4.31595 121.647 4.63811 121.618 4.97553H124.139ZM125.296 5.28472C125.296 5.49845 125.279 5.67869 125.25 5.82616H121.618C121.634 6.35691 121.808 6.76157 122.144 7.04226C122.451 7.29303 122.848 7.41842 123.334 7.41842C123.87 7.41842 124.36 7.33435 124.802 7.16408L124.991 7.99405C124.475 8.2149 123.867 8.32604 123.163 8.32604C122.319 8.32604 121.655 8.08097 121.174 7.59082C120.691 7.10068 120.452 6.4424 120.452 5.61742C120.452 4.80669 120.675 4.13203 121.124 3.59415C121.594 3.01994 122.229 2.73213 123.029 2.73213C123.813 2.73213 124.408 3.01994 124.81 3.59415C125.135 4.0501 125.296 4.61434 125.296 5.28472Z" fill="white"/>
</svg>
